<mxfile host="app.diagrams.net" modified="2024-06-12T06:51:36.325Z" agent="Mozilla/5.0 (Windows NT 10.0; Win64; x64) AppleWebKit/537.36 (KHTML, like Gecko) Chrome/125.0.0.0 Safari/537.36" etag="enQYHusYkdm7BA0up7n6" version="24.4.3" type="github">
  <diagram name="Page-1" id="ZAvsaJtdAm_mG0qpwPfN">
    <mxGraphModel dx="1643" dy="2094" grid="0" gridSize="10" guides="1" tooltips="1" connect="1" arrows="1" fold="1" page="0" pageScale="1" pageWidth="827" pageHeight="1169" math="0" shadow="0">
      <root>
        <mxCell id="0" />
        <mxCell id="1" parent="0" />
        <mxCell id="4lnt9RPYda3xQw-_CfB8-91" value="" style="shape=table;startSize=0;container=1;collapsible=0;childLayout=tableLayout;" vertex="1" parent="1">
          <mxGeometry x="-125" y="309" width="462" height="433" as="geometry" />
        </mxCell>
        <mxCell id="4lnt9RPYda3xQw-_CfB8-92" value="" style="shape=tableRow;horizontal=0;startSize=0;swimlaneHead=0;swimlaneBody=0;strokeColor=inherit;top=0;left=0;bottom=0;right=0;collapsible=0;dropTarget=0;fillColor=none;points=[[0,0.5],[1,0.5]];portConstraint=eastwest;" vertex="1" parent="4lnt9RPYda3xQw-_CfB8-91">
          <mxGeometry width="462" height="87" as="geometry" />
        </mxCell>
        <mxCell id="4lnt9RPYda3xQw-_CfB8-93" value="" style="shape=partialRectangle;html=1;whiteSpace=wrap;connectable=0;strokeColor=inherit;overflow=hidden;fillColor=none;top=0;left=0;bottom=0;right=0;pointerEvents=1;" vertex="1" parent="4lnt9RPYda3xQw-_CfB8-92">
          <mxGeometry width="231" height="87" as="geometry">
            <mxRectangle width="231" height="87" as="alternateBounds" />
          </mxGeometry>
        </mxCell>
        <mxCell id="4lnt9RPYda3xQw-_CfB8-94" value="" style="shape=partialRectangle;html=1;whiteSpace=wrap;connectable=0;strokeColor=inherit;overflow=hidden;fillColor=none;top=0;left=0;bottom=0;right=0;pointerEvents=1;" vertex="1" parent="4lnt9RPYda3xQw-_CfB8-92">
          <mxGeometry x="231" width="231" height="87" as="geometry">
            <mxRectangle width="231" height="87" as="alternateBounds" />
          </mxGeometry>
        </mxCell>
        <mxCell id="4lnt9RPYda3xQw-_CfB8-95" value="" style="shape=tableRow;horizontal=0;startSize=0;swimlaneHead=0;swimlaneBody=0;strokeColor=inherit;top=0;left=0;bottom=0;right=0;collapsible=0;dropTarget=0;fillColor=none;points=[[0,0.5],[1,0.5]];portConstraint=eastwest;" vertex="1" parent="4lnt9RPYda3xQw-_CfB8-91">
          <mxGeometry y="87" width="462" height="86" as="geometry" />
        </mxCell>
        <mxCell id="4lnt9RPYda3xQw-_CfB8-96" value="" style="shape=partialRectangle;html=1;whiteSpace=wrap;connectable=0;strokeColor=inherit;overflow=hidden;fillColor=none;top=0;left=0;bottom=0;right=0;pointerEvents=1;" vertex="1" parent="4lnt9RPYda3xQw-_CfB8-95">
          <mxGeometry width="231" height="86" as="geometry">
            <mxRectangle width="231" height="86" as="alternateBounds" />
          </mxGeometry>
        </mxCell>
        <mxCell id="4lnt9RPYda3xQw-_CfB8-97" value="" style="shape=partialRectangle;html=1;whiteSpace=wrap;connectable=0;strokeColor=inherit;overflow=hidden;fillColor=none;top=0;left=0;bottom=0;right=0;pointerEvents=1;" vertex="1" parent="4lnt9RPYda3xQw-_CfB8-95">
          <mxGeometry x="231" width="231" height="86" as="geometry">
            <mxRectangle width="231" height="86" as="alternateBounds" />
          </mxGeometry>
        </mxCell>
        <mxCell id="4lnt9RPYda3xQw-_CfB8-98" value="" style="shape=tableRow;horizontal=0;startSize=0;swimlaneHead=0;swimlaneBody=0;strokeColor=inherit;top=0;left=0;bottom=0;right=0;collapsible=0;dropTarget=0;fillColor=none;points=[[0,0.5],[1,0.5]];portConstraint=eastwest;" vertex="1" parent="4lnt9RPYda3xQw-_CfB8-91">
          <mxGeometry y="173" width="462" height="87" as="geometry" />
        </mxCell>
        <mxCell id="4lnt9RPYda3xQw-_CfB8-99" value="" style="shape=partialRectangle;html=1;whiteSpace=wrap;connectable=0;strokeColor=inherit;overflow=hidden;fillColor=none;top=0;left=0;bottom=0;right=0;pointerEvents=1;" vertex="1" parent="4lnt9RPYda3xQw-_CfB8-98">
          <mxGeometry width="231" height="87" as="geometry">
            <mxRectangle width="231" height="87" as="alternateBounds" />
          </mxGeometry>
        </mxCell>
        <mxCell id="4lnt9RPYda3xQw-_CfB8-100" value="" style="shape=partialRectangle;html=1;whiteSpace=wrap;connectable=0;strokeColor=inherit;overflow=hidden;fillColor=none;top=0;left=0;bottom=0;right=0;pointerEvents=1;" vertex="1" parent="4lnt9RPYda3xQw-_CfB8-98">
          <mxGeometry x="231" width="231" height="87" as="geometry">
            <mxRectangle width="231" height="87" as="alternateBounds" />
          </mxGeometry>
        </mxCell>
        <mxCell id="4lnt9RPYda3xQw-_CfB8-101" value="" style="shape=tableRow;horizontal=0;startSize=0;swimlaneHead=0;swimlaneBody=0;strokeColor=inherit;top=0;left=0;bottom=0;right=0;collapsible=0;dropTarget=0;fillColor=none;points=[[0,0.5],[1,0.5]];portConstraint=eastwest;" vertex="1" parent="4lnt9RPYda3xQw-_CfB8-91">
          <mxGeometry y="260" width="462" height="86" as="geometry" />
        </mxCell>
        <mxCell id="4lnt9RPYda3xQw-_CfB8-102" value="" style="shape=partialRectangle;html=1;whiteSpace=wrap;connectable=0;strokeColor=inherit;overflow=hidden;fillColor=none;top=0;left=0;bottom=0;right=0;pointerEvents=1;" vertex="1" parent="4lnt9RPYda3xQw-_CfB8-101">
          <mxGeometry width="231" height="86" as="geometry">
            <mxRectangle width="231" height="86" as="alternateBounds" />
          </mxGeometry>
        </mxCell>
        <mxCell id="4lnt9RPYda3xQw-_CfB8-103" value="" style="shape=partialRectangle;html=1;whiteSpace=wrap;connectable=0;strokeColor=inherit;overflow=hidden;fillColor=none;top=0;left=0;bottom=0;right=0;pointerEvents=1;" vertex="1" parent="4lnt9RPYda3xQw-_CfB8-101">
          <mxGeometry x="231" width="231" height="86" as="geometry">
            <mxRectangle width="231" height="86" as="alternateBounds" />
          </mxGeometry>
        </mxCell>
        <mxCell id="4lnt9RPYda3xQw-_CfB8-104" value="" style="shape=tableRow;horizontal=0;startSize=0;swimlaneHead=0;swimlaneBody=0;strokeColor=inherit;top=0;left=0;bottom=0;right=0;collapsible=0;dropTarget=0;fillColor=none;points=[[0,0.5],[1,0.5]];portConstraint=eastwest;" vertex="1" parent="4lnt9RPYda3xQw-_CfB8-91">
          <mxGeometry y="346" width="462" height="87" as="geometry" />
        </mxCell>
        <mxCell id="4lnt9RPYda3xQw-_CfB8-105" value="" style="shape=partialRectangle;html=1;whiteSpace=wrap;connectable=0;strokeColor=inherit;overflow=hidden;fillColor=none;top=0;left=0;bottom=0;right=0;pointerEvents=1;" vertex="1" parent="4lnt9RPYda3xQw-_CfB8-104">
          <mxGeometry width="231" height="87" as="geometry">
            <mxRectangle width="231" height="87" as="alternateBounds" />
          </mxGeometry>
        </mxCell>
        <mxCell id="4lnt9RPYda3xQw-_CfB8-106" value="" style="shape=partialRectangle;html=1;whiteSpace=wrap;connectable=0;strokeColor=inherit;overflow=hidden;fillColor=none;top=0;left=0;bottom=0;right=0;pointerEvents=1;" vertex="1" parent="4lnt9RPYda3xQw-_CfB8-104">
          <mxGeometry x="231" width="231" height="87" as="geometry">
            <mxRectangle width="231" height="87" as="alternateBounds" />
          </mxGeometry>
        </mxCell>
        <mxCell id="4lnt9RPYda3xQw-_CfB8-144" value="BLOG&amp;nbsp; MVC FOLDER STRUCTURE" style="whiteSpace=wrap;html=1;fillColor=#f8cecc;strokeColor=#b85450;" vertex="1" parent="1">
          <mxGeometry x="-937" y="-961" width="120" height="60" as="geometry" />
        </mxCell>
        <mxCell id="4lnt9RPYda3xQw-_CfB8-146" value="Areas" style="text;strokeColor=#d79b00;align=center;fillColor=#ffe6cc;html=1;verticalAlign=middle;whiteSpace=wrap;rounded=0;fontSize=16;" vertex="1" parent="1">
          <mxGeometry x="-950" y="-832" width="60" height="30" as="geometry" />
        </mxCell>
        <mxCell id="4lnt9RPYda3xQw-_CfB8-147" value="" style="endArrow=classic;html=1;rounded=0;fontSize=12;startSize=8;endSize=8;curved=1;" edge="1" parent="1">
          <mxGeometry width="50" height="50" relative="1" as="geometry">
            <mxPoint x="-881.7777777777778" y="-812.5555555555555" as="sourcePoint" />
            <mxPoint x="-799.7777777777778" y="-812.5555555555555" as="targetPoint" />
          </mxGeometry>
        </mxCell>
        <mxCell id="4lnt9RPYda3xQw-_CfB8-148" value="Admin" style="text;strokeColor=#d79b00;align=center;fillColor=#ffe6cc;html=1;verticalAlign=middle;whiteSpace=wrap;rounded=0;fontSize=16;" vertex="1" parent="1">
          <mxGeometry x="-788.7822222222223" y="-828.5588888888888" width="60" height="30" as="geometry" />
        </mxCell>
        <mxCell id="4lnt9RPYda3xQw-_CfB8-156" value="" style="edgeStyle=none;curved=1;rounded=0;orthogonalLoop=1;jettySize=auto;html=1;fontSize=12;startSize=8;endSize=8;exitX=1.041;exitY=0.462;exitDx=0;exitDy=0;exitPerimeter=0;" edge="1" parent="1" source="4lnt9RPYda3xQw-_CfB8-149">
          <mxGeometry relative="1" as="geometry">
            <mxPoint x="-510" y="-814" as="sourcePoint" />
            <mxPoint x="-441" y="-814" as="targetPoint" />
            <Array as="points">
              <mxPoint x="-468" y="-814" />
            </Array>
          </mxGeometry>
        </mxCell>
        <mxCell id="4lnt9RPYda3xQw-_CfB8-149" value="Controllers" style="text;html=1;align=center;verticalAlign=middle;resizable=0;points=[];autosize=1;strokeColor=#d79b00;fillColor=#ffe6cc;fontSize=16;" vertex="1" parent="1">
          <mxGeometry x="-616.7777777777778" y="-829.5555555555555" width="95" height="31" as="geometry" />
        </mxCell>
        <mxCell id="4lnt9RPYda3xQw-_CfB8-150" value="" style="edgeStyle=none;curved=1;rounded=0;orthogonalLoop=1;jettySize=auto;html=1;fontSize=12;startSize=8;endSize=8;" edge="1" parent="1" source="4lnt9RPYda3xQw-_CfB8-148">
          <mxGeometry relative="1" as="geometry">
            <mxPoint x="-618.7822222222223" y="-813.5588888888886" as="targetPoint" />
            <Array as="points">
              <mxPoint x="-667.7777777777778" y="-813.5555555555555" />
            </Array>
          </mxGeometry>
        </mxCell>
        <mxCell id="4lnt9RPYda3xQw-_CfB8-151" value="" style="endArrow=classic;html=1;rounded=0;fontSize=12;startSize=8;endSize=8;curved=1;exitX=1;exitY=0.5;exitDx=0;exitDy=0;" edge="1" parent="1" source="4lnt9RPYda3xQw-_CfB8-148">
          <mxGeometry width="50" height="50" relative="1" as="geometry">
            <mxPoint x="-768.7777777777778" y="-571.5555555555555" as="sourcePoint" />
            <mxPoint x="-626.7777777777778" y="-775.5555555555555" as="targetPoint" />
          </mxGeometry>
        </mxCell>
        <mxCell id="4lnt9RPYda3xQw-_CfB8-152" value="Views" style="text;html=1;align=center;verticalAlign=middle;resizable=0;points=[];autosize=1;strokeColor=#d79b00;fillColor=#ffe6cc;fontSize=16;" vertex="1" parent="1">
          <mxGeometry x="-621.7777777777778" y="-781.5555555555555" width="60" height="31" as="geometry" />
        </mxCell>
        <mxCell id="4lnt9RPYda3xQw-_CfB8-153" value="1." style="text;html=1;align=center;verticalAlign=middle;resizable=0;points=[];autosize=1;strokeColor=none;fillColor=none;fontSize=16;" vertex="1" parent="1">
          <mxGeometry x="-991.5" y="-831.5" width="31" height="31" as="geometry" />
        </mxCell>
        <mxCell id="4lnt9RPYda3xQw-_CfB8-157" value="Page" style="text;html=1;align=center;verticalAlign=middle;resizable=0;points=[];autosize=1;strokeColor=none;fillColor=none;fontSize=16;" vertex="1" parent="1">
          <mxGeometry x="-444.5" y="-825.5" width="55" height="31" as="geometry" />
        </mxCell>
        <mxCell id="4lnt9RPYda3xQw-_CfB8-161" value="" style="endArrow=classic;html=1;rounded=0;fontSize=12;startSize=8;endSize=8;curved=1;exitX=1.018;exitY=0.677;exitDx=0;exitDy=0;exitPerimeter=0;" edge="1" parent="1" source="4lnt9RPYda3xQw-_CfB8-149">
          <mxGeometry width="50" height="50" relative="1" as="geometry">
            <mxPoint x="-690" y="-475" as="sourcePoint" />
            <mxPoint x="-448" y="-794" as="targetPoint" />
          </mxGeometry>
        </mxCell>
        <mxCell id="4lnt9RPYda3xQw-_CfB8-162" value="Post" style="text;html=1;align=center;verticalAlign=middle;resizable=0;points=[];autosize=1;strokeColor=none;fillColor=none;fontSize=16;" vertex="1" parent="1">
          <mxGeometry x="-456" y="-802" width="50" height="31" as="geometry" />
        </mxCell>
        <mxCell id="4lnt9RPYda3xQw-_CfB8-163" value="" style="endArrow=classic;html=1;rounded=0;fontSize=12;startSize=8;endSize=8;curved=1;exitX=1.018;exitY=0.104;exitDx=0;exitDy=0;exitPerimeter=0;entryX=0.002;entryY=0.566;entryDx=0;entryDy=0;entryPerimeter=0;" edge="1" parent="1" source="4lnt9RPYda3xQw-_CfB8-149" target="4lnt9RPYda3xQw-_CfB8-164">
          <mxGeometry width="50" height="50" relative="1" as="geometry">
            <mxPoint x="-690" y="-475" as="sourcePoint" />
            <mxPoint x="-471" y="-841" as="targetPoint" />
          </mxGeometry>
        </mxCell>
        <mxCell id="4lnt9RPYda3xQw-_CfB8-164" value="Setting" style="text;html=1;align=center;verticalAlign=middle;resizable=0;points=[];autosize=1;strokeColor=none;fillColor=none;fontSize=16;" vertex="1" parent="1">
          <mxGeometry x="-468" y="-865" width="68" height="31" as="geometry" />
        </mxCell>
        <mxCell id="4lnt9RPYda3xQw-_CfB8-165" value="" style="endArrow=classic;html=1;rounded=0;fontSize=12;startSize=8;endSize=8;curved=1;exitX=0.936;exitY=1.072;exitDx=0;exitDy=0;exitPerimeter=0;" edge="1" parent="1" source="4lnt9RPYda3xQw-_CfB8-149">
          <mxGeometry width="50" height="50" relative="1" as="geometry">
            <mxPoint x="-690" y="-475" as="sourcePoint" />
            <mxPoint x="-445" y="-756" as="targetPoint" />
          </mxGeometry>
        </mxCell>
        <mxCell id="4lnt9RPYda3xQw-_CfB8-166" value="User" style="text;html=1;align=center;verticalAlign=middle;resizable=0;points=[];autosize=1;strokeColor=none;fillColor=none;fontSize=16;" vertex="1" parent="1">
          <mxGeometry x="-450.5" y="-765.5" width="52" height="31" as="geometry" />
        </mxCell>
        <mxCell id="4lnt9RPYda3xQw-_CfB8-167" value="" style="endArrow=classic;html=1;rounded=0;fontSize=12;startSize=8;endSize=8;curved=1;exitX=0.787;exitY=1.065;exitDx=0;exitDy=0;exitPerimeter=0;" edge="1" parent="1" source="4lnt9RPYda3xQw-_CfB8-152">
          <mxGeometry width="50" height="50" relative="1" as="geometry">
            <mxPoint x="-565" y="-744" as="sourcePoint" />
            <mxPoint x="-519" y="-712" as="targetPoint" />
          </mxGeometry>
        </mxCell>
        <mxCell id="4lnt9RPYda3xQw-_CfB8-168" value="cs.html" style="text;html=1;align=center;verticalAlign=middle;resizable=0;points=[];autosize=1;strokeColor=#6c8ebf;fillColor=#dae8fc;fontSize=16;" vertex="1" parent="1">
          <mxGeometry x="-469.5" y="-904.5" width="69" height="31" as="geometry" />
        </mxCell>
        <mxCell id="4lnt9RPYda3xQw-_CfB8-169" value="Page" style="text;html=1;align=center;verticalAlign=middle;resizable=0;points=[];autosize=1;strokeColor=none;fillColor=none;fontSize=16;" vertex="1" parent="1">
          <mxGeometry x="-531" y="-708" width="55" height="31" as="geometry" />
        </mxCell>
        <mxCell id="4lnt9RPYda3xQw-_CfB8-172" value="" style="endArrow=classic;html=1;rounded=0;fontSize=12;startSize=8;endSize=8;curved=1;exitX=0.43;exitY=1.179;exitDx=0;exitDy=0;exitPerimeter=0;" edge="1" parent="1" source="4lnt9RPYda3xQw-_CfB8-152">
          <mxGeometry width="50" height="50" relative="1" as="geometry">
            <mxPoint x="-663" y="-713.5" as="sourcePoint" />
            <mxPoint x="-583" y="-645" as="targetPoint" />
          </mxGeometry>
        </mxCell>
        <mxCell id="4lnt9RPYda3xQw-_CfB8-173" value="Post" style="text;html=1;align=center;verticalAlign=middle;resizable=0;points=[];autosize=1;strokeColor=none;fillColor=none;fontSize=16;" vertex="1" parent="1">
          <mxGeometry x="-726" y="-644" width="50" height="31" as="geometry" />
        </mxCell>
        <mxCell id="4lnt9RPYda3xQw-_CfB8-174" value="" style="endArrow=classic;html=1;rounded=0;fontSize=12;startSize=8;endSize=8;curved=1;" edge="1" parent="1">
          <mxGeometry width="50" height="50" relative="1" as="geometry">
            <mxPoint x="-635" y="-760" as="sourcePoint" />
            <mxPoint x="-776" y="-679" as="targetPoint" />
          </mxGeometry>
        </mxCell>
        <mxCell id="4lnt9RPYda3xQw-_CfB8-175" value="" style="endArrow=classic;html=1;rounded=0;fontSize=12;startSize=8;endSize=8;curved=1;exitX=-0.009;exitY=1.029;exitDx=0;exitDy=0;exitPerimeter=0;entryX=0.718;entryY=-0.183;entryDx=0;entryDy=0;entryPerimeter=0;" edge="1" parent="1" source="4lnt9RPYda3xQw-_CfB8-152" target="4lnt9RPYda3xQw-_CfB8-173">
          <mxGeometry width="50" height="50" relative="1" as="geometry">
            <mxPoint x="-671" y="-700.5" as="sourcePoint" />
            <mxPoint x="-588" y="-660.5" as="targetPoint" />
          </mxGeometry>
        </mxCell>
        <mxCell id="4lnt9RPYda3xQw-_CfB8-176" value="User" style="text;html=1;align=center;verticalAlign=middle;resizable=0;points=[];autosize=1;strokeColor=none;fillColor=none;fontSize=16;" vertex="1" parent="1">
          <mxGeometry x="-609" y="-638" width="52" height="31" as="geometry" />
        </mxCell>
        <mxCell id="4lnt9RPYda3xQw-_CfB8-177" value="Setting" style="text;html=1;align=center;verticalAlign=middle;resizable=0;points=[];autosize=1;strokeColor=none;fillColor=none;fontSize=16;" vertex="1" parent="1">
          <mxGeometry x="-840" y="-685" width="68" height="31" as="geometry" />
        </mxCell>
        <mxCell id="4lnt9RPYda3xQw-_CfB8-178" value="2." style="text;html=1;align=center;verticalAlign=middle;resizable=0;points=[];autosize=1;strokeColor=none;fillColor=none;fontSize=16;" vertex="1" parent="1">
          <mxGeometry x="-977" y="-572" width="31" height="31" as="geometry" />
        </mxCell>
        <mxCell id="4lnt9RPYda3xQw-_CfB8-179" value="" style="endArrow=classic;html=1;rounded=0;fontSize=12;startSize=8;endSize=8;curved=1;exitX=0.787;exitY=1.065;exitDx=0;exitDy=0;exitPerimeter=0;" edge="1" parent="1">
          <mxGeometry width="50" height="50" relative="1" as="geometry">
            <mxPoint x="-571" y="-532" as="sourcePoint" />
            <mxPoint x="-515" y="-495" as="targetPoint" />
          </mxGeometry>
        </mxCell>
        <mxCell id="4lnt9RPYda3xQw-_CfB8-180" value="Page" style="text;html=1;align=center;verticalAlign=middle;resizable=0;points=[];autosize=1;strokeColor=#d79b00;fillColor=#ffe6cc;fontSize=16;" vertex="1" parent="1">
          <mxGeometry x="-527" y="-491" width="55" height="31" as="geometry" />
        </mxCell>
        <mxCell id="4lnt9RPYda3xQw-_CfB8-181" value="" style="endArrow=classic;html=1;rounded=0;fontSize=12;startSize=8;endSize=8;curved=1;exitX=0.43;exitY=1.179;exitDx=0;exitDy=0;exitPerimeter=0;" edge="1" parent="1">
          <mxGeometry width="50" height="50" relative="1" as="geometry">
            <mxPoint x="-592" y="-528" as="sourcePoint" />
            <mxPoint x="-579" y="-428" as="targetPoint" />
          </mxGeometry>
        </mxCell>
        <mxCell id="4lnt9RPYda3xQw-_CfB8-182" value="Post" style="text;html=1;align=center;verticalAlign=middle;resizable=0;points=[];autosize=1;strokeColor=#d79b00;fillColor=#ffe6cc;fontSize=16;" vertex="1" parent="1">
          <mxGeometry x="-722" y="-427" width="50" height="31" as="geometry" />
        </mxCell>
        <mxCell id="4lnt9RPYda3xQw-_CfB8-183" value="" style="endArrow=classic;html=1;rounded=0;fontSize=12;startSize=8;endSize=8;curved=1;" edge="1" parent="1">
          <mxGeometry width="50" height="50" relative="1" as="geometry">
            <mxPoint x="-631" y="-543" as="sourcePoint" />
            <mxPoint x="-772" y="-462" as="targetPoint" />
          </mxGeometry>
        </mxCell>
        <mxCell id="4lnt9RPYda3xQw-_CfB8-184" value="" style="endArrow=classic;html=1;rounded=0;fontSize=12;startSize=8;endSize=8;curved=1;exitX=-0.009;exitY=1.029;exitDx=0;exitDy=0;exitPerimeter=0;entryX=0.718;entryY=-0.183;entryDx=0;entryDy=0;entryPerimeter=0;" edge="1" parent="1" target="4lnt9RPYda3xQw-_CfB8-182">
          <mxGeometry width="50" height="50" relative="1" as="geometry">
            <mxPoint x="-618" y="-533" as="sourcePoint" />
            <mxPoint x="-584" y="-443.5" as="targetPoint" />
          </mxGeometry>
        </mxCell>
        <mxCell id="4lnt9RPYda3xQw-_CfB8-185" value="User" style="text;html=1;align=center;verticalAlign=middle;resizable=0;points=[];autosize=1;strokeColor=#d79b00;fillColor=#ffe6cc;fontSize=16;" vertex="1" parent="1">
          <mxGeometry x="-604" y="-424" width="52" height="31" as="geometry" />
        </mxCell>
        <mxCell id="4lnt9RPYda3xQw-_CfB8-186" value="Setting" style="text;html=1;align=center;verticalAlign=middle;resizable=0;points=[];autosize=1;strokeColor=#d79b00;fillColor=#ffe6cc;fontSize=16;" vertex="1" parent="1">
          <mxGeometry x="-836" y="-468" width="68" height="31" as="geometry" />
        </mxCell>
        <mxCell id="4lnt9RPYda3xQw-_CfB8-187" value="Views" style="text;html=1;align=center;verticalAlign=middle;resizable=0;points=[];autosize=1;strokeColor=#d79b00;fillColor=#ffe6cc;fontSize=16;" vertex="1" parent="1">
          <mxGeometry x="-628" y="-567" width="60" height="31" as="geometry" />
        </mxCell>
        <mxCell id="4lnt9RPYda3xQw-_CfB8-188" value="" style="endArrow=classic;html=1;rounded=0;fontSize=12;startSize=8;endSize=8;curved=1;exitX=0.136;exitY=1.057;exitDx=0;exitDy=0;exitPerimeter=0;" edge="1" parent="1" source="4lnt9RPYda3xQw-_CfB8-186">
          <mxGeometry width="50" height="50" relative="1" as="geometry">
            <mxPoint x="-690" y="-475" as="sourcePoint" />
            <mxPoint x="-885" y="-387" as="targetPoint" />
          </mxGeometry>
        </mxCell>
        <mxCell id="4lnt9RPYda3xQw-_CfB8-189" value="Index" style="text;html=1;align=center;verticalAlign=middle;resizable=0;points=[];autosize=1;strokeColor=none;fillColor=none;fontSize=16;" vertex="1" parent="1">
          <mxGeometry x="-944" y="-399" width="57" height="31" as="geometry" />
        </mxCell>
        <mxCell id="4lnt9RPYda3xQw-_CfB8-190" value="" style="endArrow=classic;html=1;rounded=0;fontSize=12;startSize=8;endSize=8;curved=1;exitX=-0.073;exitY=0.882;exitDx=0;exitDy=0;exitPerimeter=0;" edge="1" parent="1" source="4lnt9RPYda3xQw-_CfB8-182">
          <mxGeometry width="50" height="50" relative="1" as="geometry">
            <mxPoint x="-712" y="-390" as="sourcePoint" />
            <mxPoint x="-798" y="-343" as="targetPoint" />
          </mxGeometry>
        </mxCell>
        <mxCell id="4lnt9RPYda3xQw-_CfB8-191" value="" style="endArrow=classic;html=1;rounded=0;fontSize=12;startSize=8;endSize=8;curved=1;exitX=0.193;exitY=1.061;exitDx=0;exitDy=0;exitPerimeter=0;" edge="1" parent="1" source="4lnt9RPYda3xQw-_CfB8-182">
          <mxGeometry width="50" height="50" relative="1" as="geometry">
            <mxPoint x="-690" y="-475" as="sourcePoint" />
            <mxPoint x="-758" y="-320" as="targetPoint" />
          </mxGeometry>
        </mxCell>
        <mxCell id="4lnt9RPYda3xQw-_CfB8-192" value="" style="endArrow=classic;html=1;rounded=0;fontSize=12;startSize=8;endSize=8;curved=1;exitX=0.482;exitY=1.025;exitDx=0;exitDy=0;exitPerimeter=0;" edge="1" parent="1" source="4lnt9RPYda3xQw-_CfB8-182">
          <mxGeometry width="50" height="50" relative="1" as="geometry">
            <mxPoint x="-702" y="-386" as="sourcePoint" />
            <mxPoint x="-715" y="-305" as="targetPoint" />
          </mxGeometry>
        </mxCell>
        <mxCell id="4lnt9RPYda3xQw-_CfB8-193" value="Create" style="text;html=1;align=center;verticalAlign=middle;resizable=0;points=[];autosize=1;strokeColor=none;fillColor=none;fontSize=16;" vertex="1" parent="1">
          <mxGeometry x="-861" y="-354" width="66" height="31" as="geometry" />
        </mxCell>
        <mxCell id="4lnt9RPYda3xQw-_CfB8-194" value="cs.html" style="text;html=1;align=center;verticalAlign=middle;resizable=0;points=[];autosize=1;strokeColor=#6c8ebf;fillColor=#dae8fc;fontSize=16;" vertex="1" parent="1">
          <mxGeometry x="-1021" y="-396" width="69" height="31" as="geometry" />
        </mxCell>
        <mxCell id="4lnt9RPYda3xQw-_CfB8-195" value="Edit" style="text;html=1;align=center;verticalAlign=middle;resizable=0;points=[];autosize=1;strokeColor=none;fillColor=none;fontSize=16;" vertex="1" parent="1">
          <mxGeometry x="-788.5" y="-324.5" width="46" height="31" as="geometry" />
        </mxCell>
        <mxCell id="4lnt9RPYda3xQw-_CfB8-196" value="Index" style="text;html=1;align=center;verticalAlign=middle;resizable=0;points=[];autosize=1;strokeColor=none;fillColor=none;fontSize=16;" vertex="1" parent="1">
          <mxGeometry x="-742.5" y="-304" width="57" height="31" as="geometry" />
        </mxCell>
        <mxCell id="4lnt9RPYda3xQw-_CfB8-197" value="" style="endArrow=classic;html=1;rounded=0;fontSize=12;startSize=8;endSize=8;curved=1;" edge="1" parent="1">
          <mxGeometry width="50" height="50" relative="1" as="geometry">
            <mxPoint x="-600" y="-395" as="sourcePoint" />
            <mxPoint x="-670" y="-212" as="targetPoint" />
          </mxGeometry>
        </mxCell>
        <mxCell id="4lnt9RPYda3xQw-_CfB8-198" value="" style="endArrow=classic;html=1;rounded=0;fontSize=12;startSize=8;endSize=8;curved=1;exitX=0.479;exitY=1.154;exitDx=0;exitDy=0;exitPerimeter=0;" edge="1" parent="1" source="4lnt9RPYda3xQw-_CfB8-185">
          <mxGeometry width="50" height="50" relative="1" as="geometry">
            <mxPoint x="-570" y="-361" as="sourcePoint" />
            <mxPoint x="-595" y="-167" as="targetPoint" />
          </mxGeometry>
        </mxCell>
        <mxCell id="4lnt9RPYda3xQw-_CfB8-199" value="" style="endArrow=classic;html=1;rounded=0;fontSize=12;startSize=8;endSize=8;curved=1;exitX=0.778;exitY=1.118;exitDx=0;exitDy=0;exitPerimeter=0;" edge="1" parent="1" source="4lnt9RPYda3xQw-_CfB8-185">
          <mxGeometry width="50" height="50" relative="1" as="geometry">
            <mxPoint x="-535" y="-352" as="sourcePoint" />
            <mxPoint x="-537" y="-219" as="targetPoint" />
          </mxGeometry>
        </mxCell>
        <mxCell id="4lnt9RPYda3xQw-_CfB8-200" value="" style="endArrow=classic;html=1;rounded=0;fontSize=12;startSize=8;endSize=8;curved=1;exitX=1.015;exitY=0.785;exitDx=0;exitDy=0;exitPerimeter=0;" edge="1" parent="1" source="4lnt9RPYda3xQw-_CfB8-185">
          <mxGeometry width="50" height="50" relative="1" as="geometry">
            <mxPoint x="-538" y="-389" as="sourcePoint" />
            <mxPoint x="-439" y="-276" as="targetPoint" />
          </mxGeometry>
        </mxCell>
        <mxCell id="4lnt9RPYda3xQw-_CfB8-201" value="" style="endArrow=classic;html=1;rounded=0;fontSize=12;startSize=8;endSize=8;curved=1;exitX=0.844;exitY=0.964;exitDx=0;exitDy=0;exitPerimeter=0;" edge="1" parent="1" source="4lnt9RPYda3xQw-_CfB8-185">
          <mxGeometry width="50" height="50" relative="1" as="geometry">
            <mxPoint x="-489" y="-369" as="sourcePoint" />
            <mxPoint x="-462" y="-247" as="targetPoint" />
          </mxGeometry>
        </mxCell>
        <mxCell id="4lnt9RPYda3xQw-_CfB8-202" value="AccessDenied" style="text;html=1;align=center;verticalAlign=middle;resizable=0;points=[];autosize=1;strokeColor=none;fillColor=none;fontSize=16;" vertex="1" parent="1">
          <mxGeometry x="-741.78" y="-206" width="120" height="31" as="geometry" />
        </mxCell>
        <mxCell id="4lnt9RPYda3xQw-_CfB8-203" value="Index" style="text;html=1;align=center;verticalAlign=middle;resizable=0;points=[];autosize=1;strokeColor=none;fillColor=none;fontSize=16;" vertex="1" parent="1">
          <mxGeometry x="-633.5" y="-164.5" width="57" height="31" as="geometry" />
        </mxCell>
        <mxCell id="4lnt9RPYda3xQw-_CfB8-204" value="Login" style="text;html=1;align=center;verticalAlign=middle;resizable=0;points=[];autosize=1;strokeColor=none;fillColor=none;fontSize=16;" vertex="1" parent="1">
          <mxGeometry x="-561.78" y="-206" width="57" height="31" as="geometry" />
        </mxCell>
        <mxCell id="4lnt9RPYda3xQw-_CfB8-205" value="Register" style="text;html=1;align=center;verticalAlign=middle;resizable=0;points=[];autosize=1;strokeColor=none;fillColor=none;fontSize=16;" vertex="1" parent="1">
          <mxGeometry x="-504.78" y="-240" width="78" height="31" as="geometry" />
        </mxCell>
        <mxCell id="4lnt9RPYda3xQw-_CfB8-206" value="ResetPassword" style="text;html=1;align=center;verticalAlign=middle;resizable=0;points=[];autosize=1;strokeColor=none;fillColor=none;fontSize=16;" vertex="1" parent="1">
          <mxGeometry x="-444.5" y="-273" width="130" height="31" as="geometry" />
        </mxCell>
        <mxCell id="4lnt9RPYda3xQw-_CfB8-208" value="3." style="text;html=1;align=center;verticalAlign=middle;resizable=0;points=[];autosize=1;strokeColor=none;fillColor=none;fontSize=16;" vertex="1" parent="1">
          <mxGeometry x="-983" y="-52" width="31" height="31" as="geometry" />
        </mxCell>
        <mxCell id="4lnt9RPYda3xQw-_CfB8-209" value="Controllers" style="text;html=1;align=center;verticalAlign=middle;resizable=0;points=[];autosize=1;strokeColor=#d79b00;fillColor=#ffe6cc;fontSize=16;" vertex="1" parent="1">
          <mxGeometry x="-931" y="-52" width="95" height="31" as="geometry" />
        </mxCell>
        <mxCell id="4lnt9RPYda3xQw-_CfB8-210" value="" style="endArrow=classic;html=1;rounded=0;fontSize=12;startSize=8;endSize=8;curved=1;exitX=1.007;exitY=0.308;exitDx=0;exitDy=0;exitPerimeter=0;" edge="1" parent="1" source="4lnt9RPYda3xQw-_CfB8-209">
          <mxGeometry width="50" height="50" relative="1" as="geometry">
            <mxPoint x="-811" y="-32" as="sourcePoint" />
            <mxPoint x="-743" y="-17" as="targetPoint" />
          </mxGeometry>
        </mxCell>
        <mxCell id="4lnt9RPYda3xQw-_CfB8-211" value="" style="endArrow=classic;html=1;rounded=0;fontSize=12;startSize=8;endSize=8;curved=1;exitX=0.96;exitY=1.093;exitDx=0;exitDy=0;exitPerimeter=0;" edge="1" parent="1" source="4lnt9RPYda3xQw-_CfB8-209">
          <mxGeometry width="50" height="50" relative="1" as="geometry">
            <mxPoint x="-768" y="-17" as="sourcePoint" />
            <mxPoint x="-762" y="18" as="targetPoint" />
          </mxGeometry>
        </mxCell>
        <mxCell id="4lnt9RPYda3xQw-_CfB8-212" value="" style="endArrow=classic;html=1;rounded=0;fontSize=12;startSize=8;endSize=8;curved=1;exitX=0.434;exitY=1.129;exitDx=0;exitDy=0;exitPerimeter=0;" edge="1" parent="1" source="4lnt9RPYda3xQw-_CfB8-209">
          <mxGeometry width="50" height="50" relative="1" as="geometry">
            <mxPoint x="-797" y="8" as="sourcePoint" />
            <mxPoint x="-806" y="46" as="targetPoint" />
          </mxGeometry>
        </mxCell>
        <mxCell id="4lnt9RPYda3xQw-_CfB8-213" value="Blog" style="text;html=1;align=center;verticalAlign=middle;resizable=0;points=[];autosize=1;strokeColor=none;fillColor=none;fontSize=16;" vertex="1" parent="1">
          <mxGeometry x="-740.5" y="-29" width="50" height="31" as="geometry" />
        </mxCell>
        <mxCell id="4lnt9RPYda3xQw-_CfB8-214" value="Home" style="text;html=1;align=center;verticalAlign=middle;resizable=0;points=[];autosize=1;strokeColor=none;fillColor=none;fontSize=16;" vertex="1" parent="1">
          <mxGeometry x="-764" y="17" width="61" height="31" as="geometry" />
        </mxCell>
        <mxCell id="4lnt9RPYda3xQw-_CfB8-215" value="Page" style="text;html=1;align=center;verticalAlign=middle;resizable=0;points=[];autosize=1;strokeColor=none;fillColor=none;fontSize=16;" vertex="1" parent="1">
          <mxGeometry x="-816.5" y="39.5" width="55" height="31" as="geometry" />
        </mxCell>
        <mxCell id="4lnt9RPYda3xQw-_CfB8-216" value="cs.html" style="text;html=1;align=center;verticalAlign=middle;resizable=0;points=[];autosize=1;strokeColor=#6c8ebf;fillColor=#dae8fc;fontSize=16;" vertex="1" parent="1">
          <mxGeometry x="-736.5" y="-65.5" width="69" height="31" as="geometry" />
        </mxCell>
        <mxCell id="4lnt9RPYda3xQw-_CfB8-217" value="4." style="text;html=1;align=center;verticalAlign=middle;resizable=0;points=[];autosize=1;strokeColor=none;fillColor=none;fontSize=16;" vertex="1" parent="1">
          <mxGeometry x="-975.5" y="119.5" width="31" height="31" as="geometry" />
        </mxCell>
        <mxCell id="4lnt9RPYda3xQw-_CfB8-218" value="Data" style="text;html=1;align=center;verticalAlign=middle;resizable=0;points=[];autosize=1;strokeColor=#d79b00;fillColor=#ffe6cc;fontSize=16;" vertex="1" parent="1">
          <mxGeometry x="-917" y="122" width="52" height="31" as="geometry" />
        </mxCell>
        <mxCell id="4lnt9RPYda3xQw-_CfB8-219" value="" style="endArrow=classic;html=1;rounded=0;fontSize=12;startSize=8;endSize=8;curved=1;exitX=1.094;exitY=0.484;exitDx=0;exitDy=0;exitPerimeter=0;" edge="1" parent="1" source="4lnt9RPYda3xQw-_CfB8-218">
          <mxGeometry width="50" height="50" relative="1" as="geometry">
            <mxPoint x="-858" y="135" as="sourcePoint" />
            <mxPoint x="-792" y="143" as="targetPoint" />
          </mxGeometry>
        </mxCell>
        <mxCell id="4lnt9RPYda3xQw-_CfB8-220" value="ApplicationDbContext.cs" style="text;html=1;align=center;verticalAlign=middle;resizable=0;points=[];autosize=1;strokeColor=none;fillColor=none;fontSize=16;" vertex="1" parent="1">
          <mxGeometry x="-793" y="125" width="192" height="31" as="geometry" />
        </mxCell>
        <mxCell id="4lnt9RPYda3xQw-_CfB8-221" value="5." style="text;html=1;align=center;verticalAlign=middle;resizable=0;points=[];autosize=1;strokeColor=none;fillColor=none;fontSize=16;" vertex="1" parent="1">
          <mxGeometry x="-972" y="224" width="31" height="31" as="geometry" />
        </mxCell>
        <mxCell id="4lnt9RPYda3xQw-_CfB8-222" value="Models" style="text;html=1;align=center;verticalAlign=middle;resizable=0;points=[];autosize=1;strokeColor=#d79b00;fillColor=#ffe6cc;fontSize=16;" vertex="1" parent="1">
          <mxGeometry x="-930" y="228" width="70" height="31" as="geometry" />
        </mxCell>
        <mxCell id="4lnt9RPYda3xQw-_CfB8-224" value="" style="endArrow=classic;html=1;rounded=0;fontSize=12;startSize=8;endSize=8;curved=1;exitX=1.035;exitY=0.577;exitDx=0;exitDy=0;exitPerimeter=0;" edge="1" parent="1" source="4lnt9RPYda3xQw-_CfB8-222">
          <mxGeometry width="50" height="50" relative="1" as="geometry">
            <mxPoint x="-846" y="264" as="sourcePoint" />
            <mxPoint x="-761" y="244" as="targetPoint" />
          </mxGeometry>
        </mxCell>
        <mxCell id="4lnt9RPYda3xQw-_CfB8-225" value="" style="endArrow=classic;html=1;rounded=0;fontSize=12;startSize=8;endSize=8;curved=1;exitX=1.019;exitY=0.9;exitDx=0;exitDy=0;exitPerimeter=0;" edge="1" parent="1" source="4lnt9RPYda3xQw-_CfB8-222">
          <mxGeometry width="50" height="50" relative="1" as="geometry">
            <mxPoint x="-846" y="266" as="sourcePoint" />
            <mxPoint x="-768" y="276" as="targetPoint" />
          </mxGeometry>
        </mxCell>
        <mxCell id="4lnt9RPYda3xQw-_CfB8-226" value="" style="endArrow=classic;html=1;rounded=0;fontSize=12;startSize=8;endSize=8;curved=1;exitX=0.702;exitY=1.115;exitDx=0;exitDy=0;exitPerimeter=0;" edge="1" parent="1" source="4lnt9RPYda3xQw-_CfB8-222">
          <mxGeometry width="50" height="50" relative="1" as="geometry">
            <mxPoint x="-855" y="291" as="sourcePoint" />
            <mxPoint x="-814" y="314" as="targetPoint" />
          </mxGeometry>
        </mxCell>
        <mxCell id="4lnt9RPYda3xQw-_CfB8-227" value="" style="endArrow=classic;html=1;rounded=0;fontSize=12;startSize=8;endSize=8;curved=1;exitX=0.416;exitY=1.007;exitDx=0;exitDy=0;exitPerimeter=0;" edge="1" parent="1" source="4lnt9RPYda3xQw-_CfB8-222">
          <mxGeometry width="50" height="50" relative="1" as="geometry">
            <mxPoint x="-921" y="325" as="sourcePoint" />
            <mxPoint x="-845" y="349" as="targetPoint" />
          </mxGeometry>
        </mxCell>
        <mxCell id="4lnt9RPYda3xQw-_CfB8-228" value="" style="endArrow=classic;html=1;rounded=0;fontSize=12;startSize=8;endSize=8;curved=1;exitX=0.225;exitY=1.079;exitDx=0;exitDy=0;exitPerimeter=0;" edge="1" parent="1" source="4lnt9RPYda3xQw-_CfB8-222">
          <mxGeometry width="50" height="50" relative="1" as="geometry">
            <mxPoint x="-923" y="305" as="sourcePoint" />
            <mxPoint x="-895" y="359" as="targetPoint" />
          </mxGeometry>
        </mxCell>
        <mxCell id="4lnt9RPYda3xQw-_CfB8-229" value="ApplicationUser" style="text;html=1;align=center;verticalAlign=middle;resizable=0;points=[];autosize=1;strokeColor=none;fillColor=none;fontSize=16;" vertex="1" parent="1">
          <mxGeometry x="-758" y="228" width="130" height="31" as="geometry" />
        </mxCell>
        <mxCell id="4lnt9RPYda3xQw-_CfB8-230" value="ErrorViewModel" style="text;html=1;align=center;verticalAlign=middle;resizable=0;points=[];autosize=1;strokeColor=none;fillColor=none;fontSize=16;" vertex="1" parent="1">
          <mxGeometry x="-772" y="272" width="132" height="31" as="geometry" />
        </mxCell>
        <mxCell id="4lnt9RPYda3xQw-_CfB8-231" value="Page" style="text;html=1;align=center;verticalAlign=middle;resizable=0;points=[];autosize=1;strokeColor=none;fillColor=none;fontSize=16;" vertex="1" parent="1">
          <mxGeometry x="-817" y="315" width="55" height="31" as="geometry" />
        </mxCell>
        <mxCell id="4lnt9RPYda3xQw-_CfB8-232" value="Post" style="text;html=1;align=center;verticalAlign=middle;resizable=0;points=[];autosize=1;strokeColor=none;fillColor=none;fontSize=16;" vertex="1" parent="1">
          <mxGeometry x="-853" y="351" width="50" height="31" as="geometry" />
        </mxCell>
        <mxCell id="4lnt9RPYda3xQw-_CfB8-233" value="Setting" style="text;html=1;align=center;verticalAlign=middle;resizable=0;points=[];autosize=1;strokeColor=none;fillColor=none;fontSize=16;" vertex="1" parent="1">
          <mxGeometry x="-929" y="356" width="68" height="31" as="geometry" />
        </mxCell>
        <mxCell id="4lnt9RPYda3xQw-_CfB8-234" value="cs.html" style="text;html=1;align=center;verticalAlign=middle;resizable=0;points=[];autosize=1;strokeColor=#6c8ebf;fillColor=#dae8fc;fontSize=16;" vertex="1" parent="1">
          <mxGeometry x="-1010.5" y="356" width="69" height="31" as="geometry" />
        </mxCell>
        <mxCell id="4lnt9RPYda3xQw-_CfB8-235" value="6." style="text;html=1;align=center;verticalAlign=middle;resizable=0;points=[];autosize=1;strokeColor=none;fillColor=none;fontSize=16;" vertex="1" parent="1">
          <mxGeometry x="-958.5" y="455.5" width="31" height="31" as="geometry" />
        </mxCell>
        <mxCell id="4lnt9RPYda3xQw-_CfB8-236" value="Utilites" style="text;html=1;align=center;verticalAlign=middle;resizable=0;points=[];autosize=1;strokeColor=#d79b00;fillColor=#ffe6cc;fontSize=16;" vertex="1" parent="1">
          <mxGeometry x="-906" y="455.5" width="66" height="31" as="geometry" />
        </mxCell>
        <mxCell id="4lnt9RPYda3xQw-_CfB8-237" value="" style="endArrow=classic;html=1;rounded=0;fontSize=12;startSize=8;endSize=8;curved=1;exitX=1.015;exitY=0.403;exitDx=0;exitDy=0;exitPerimeter=0;" edge="1" parent="1" source="4lnt9RPYda3xQw-_CfB8-236">
          <mxGeometry width="50" height="50" relative="1" as="geometry">
            <mxPoint x="-809" y="494" as="sourcePoint" />
            <mxPoint x="-761" y="468" as="targetPoint" />
          </mxGeometry>
        </mxCell>
        <mxCell id="4lnt9RPYda3xQw-_CfB8-238" value="" style="endArrow=classic;html=1;rounded=0;fontSize=12;startSize=8;endSize=8;curved=1;exitX=0.909;exitY=1.016;exitDx=0;exitDy=0;exitPerimeter=0;" edge="1" parent="1" source="4lnt9RPYda3xQw-_CfB8-236">
          <mxGeometry width="50" height="50" relative="1" as="geometry">
            <mxPoint x="-819" y="499" as="sourcePoint" />
            <mxPoint x="-770" y="510" as="targetPoint" />
          </mxGeometry>
        </mxCell>
        <mxCell id="4lnt9RPYda3xQw-_CfB8-239" value="" style="endArrow=classic;html=1;rounded=0;fontSize=12;startSize=8;endSize=8;curved=1;exitX=0.455;exitY=1.016;exitDx=0;exitDy=0;exitPerimeter=0;" edge="1" parent="1" source="4lnt9RPYda3xQw-_CfB8-236">
          <mxGeometry width="50" height="50" relative="1" as="geometry">
            <mxPoint x="-851" y="540" as="sourcePoint" />
            <mxPoint x="-823" y="546" as="targetPoint" />
          </mxGeometry>
        </mxCell>
        <mxCell id="4lnt9RPYda3xQw-_CfB8-240" value="DbInitializer" style="text;html=1;align=center;verticalAlign=middle;resizable=0;points=[];autosize=1;strokeColor=none;fillColor=none;fontSize=16;" vertex="1" parent="1">
          <mxGeometry x="-761.5" y="455.5" width="102" height="31" as="geometry" />
        </mxCell>
        <mxCell id="4lnt9RPYda3xQw-_CfB8-241" value="IDbInitializer" style="text;html=1;align=center;verticalAlign=middle;resizable=0;points=[];autosize=1;strokeColor=none;fillColor=none;fontSize=16;" vertex="1" parent="1">
          <mxGeometry x="-772" y="502" width="106" height="31" as="geometry" />
        </mxCell>
        <mxCell id="4lnt9RPYda3xQw-_CfB8-242" value="WebsiteRoles" style="text;html=1;align=center;verticalAlign=middle;resizable=0;points=[];autosize=1;strokeColor=none;fillColor=none;fontSize=16;" vertex="1" parent="1">
          <mxGeometry x="-830" y="549" width="116" height="31" as="geometry" />
        </mxCell>
        <mxCell id="4lnt9RPYda3xQw-_CfB8-243" value="7." style="text;html=1;align=center;verticalAlign=middle;resizable=0;points=[];autosize=1;strokeColor=none;fillColor=none;fontSize=16;" vertex="1" parent="1">
          <mxGeometry x="-943.5" y="627.5" width="31" height="31" as="geometry" />
        </mxCell>
        <mxCell id="4lnt9RPYda3xQw-_CfB8-244" value="ViewModels" style="text;html=1;align=center;verticalAlign=middle;resizable=0;points=[];autosize=1;strokeColor=#d79b00;fillColor=#ffe6cc;fontSize=16;" vertex="1" parent="1">
          <mxGeometry x="-906" y="627.5" width="104" height="31" as="geometry" />
        </mxCell>
        <mxCell id="4lnt9RPYda3xQw-_CfB8-245" value="" style="endArrow=classic;html=1;rounded=0;fontSize=12;startSize=8;endSize=8;curved=1;exitX=1.019;exitY=0.565;exitDx=0;exitDy=0;exitPerimeter=0;" edge="1" parent="1" source="4lnt9RPYda3xQw-_CfB8-244">
          <mxGeometry width="50" height="50" relative="1" as="geometry">
            <mxPoint x="-794" y="665" as="sourcePoint" />
            <mxPoint x="-704" y="641" as="targetPoint" />
          </mxGeometry>
        </mxCell>
        <mxCell id="4lnt9RPYda3xQw-_CfB8-246" value="" style="endArrow=classic;html=1;rounded=0;fontSize=12;startSize=8;endSize=8;curved=1;" edge="1" parent="1">
          <mxGeometry width="50" height="50" relative="1" as="geometry">
            <mxPoint x="-797" y="645" as="sourcePoint" />
            <mxPoint x="-697" y="670" as="targetPoint" />
          </mxGeometry>
        </mxCell>
        <mxCell id="4lnt9RPYda3xQw-_CfB8-247" value="" style="endArrow=classic;html=1;rounded=0;fontSize=12;startSize=8;endSize=8;curved=1;" edge="1" parent="1">
          <mxGeometry width="50" height="50" relative="1" as="geometry">
            <mxPoint x="-787" y="649" as="sourcePoint" />
            <mxPoint x="-697" y="693" as="targetPoint" />
          </mxGeometry>
        </mxCell>
        <mxCell id="4lnt9RPYda3xQw-_CfB8-248" value="" style="endArrow=classic;html=1;rounded=0;fontSize=12;startSize=8;endSize=8;curved=1;" edge="1" parent="1">
          <mxGeometry width="50" height="50" relative="1" as="geometry">
            <mxPoint x="-791" y="648" as="sourcePoint" />
            <mxPoint x="-674" y="735" as="targetPoint" />
          </mxGeometry>
        </mxCell>
        <mxCell id="4lnt9RPYda3xQw-_CfB8-249" value="" style="endArrow=classic;html=1;rounded=0;fontSize=12;startSize=8;endSize=8;curved=1;" edge="1" parent="1">
          <mxGeometry width="50" height="50" relative="1" as="geometry">
            <mxPoint x="-793" y="650" as="sourcePoint" />
            <mxPoint x="-697" y="761" as="targetPoint" />
          </mxGeometry>
        </mxCell>
        <mxCell id="4lnt9RPYda3xQw-_CfB8-250" value="" style="endArrow=classic;html=1;rounded=0;fontSize=12;startSize=8;endSize=8;curved=1;exitX=1.048;exitY=0.79;exitDx=0;exitDy=0;exitPerimeter=0;" edge="1" parent="1" source="4lnt9RPYda3xQw-_CfB8-244">
          <mxGeometry width="50" height="50" relative="1" as="geometry">
            <mxPoint x="-696" y="789" as="sourcePoint" />
            <mxPoint x="-702" y="810" as="targetPoint" />
          </mxGeometry>
        </mxCell>
        <mxCell id="4lnt9RPYda3xQw-_CfB8-251" value="" style="endArrow=classic;html=1;rounded=0;fontSize=12;startSize=8;endSize=8;curved=1;" edge="1" parent="1">
          <mxGeometry width="50" height="50" relative="1" as="geometry">
            <mxPoint x="-800" y="667" as="sourcePoint" />
            <mxPoint x="-802" y="848" as="targetPoint" />
          </mxGeometry>
        </mxCell>
        <mxCell id="4lnt9RPYda3xQw-_CfB8-252" value="" style="endArrow=classic;html=1;rounded=0;fontSize=12;startSize=8;endSize=8;curved=1;" edge="1" parent="1">
          <mxGeometry width="50" height="50" relative="1" as="geometry">
            <mxPoint x="-801" y="661" as="sourcePoint" />
            <mxPoint x="-886" y="822" as="targetPoint" />
          </mxGeometry>
        </mxCell>
        <mxCell id="4lnt9RPYda3xQw-_CfB8-253" value="" style="endArrow=classic;html=1;rounded=0;fontSize=12;startSize=8;endSize=8;curved=1;exitX=1;exitY=0.984;exitDx=0;exitDy=0;exitPerimeter=0;" edge="1" parent="1" source="4lnt9RPYda3xQw-_CfB8-244">
          <mxGeometry width="50" height="50" relative="1" as="geometry">
            <mxPoint x="-826" y="677" as="sourcePoint" />
            <mxPoint x="-914" y="789" as="targetPoint" />
          </mxGeometry>
        </mxCell>
        <mxCell id="4lnt9RPYda3xQw-_CfB8-254" value="" style="endArrow=classic;html=1;rounded=0;fontSize=12;startSize=8;endSize=8;curved=1;" edge="1" parent="1">
          <mxGeometry width="50" height="50" relative="1" as="geometry">
            <mxPoint x="-788.78" y="666" as="sourcePoint" />
            <mxPoint x="-732.78" y="851" as="targetPoint" />
          </mxGeometry>
        </mxCell>
        <mxCell id="4lnt9RPYda3xQw-_CfB8-255" value="BlogPostVM" style="text;html=1;align=center;verticalAlign=middle;resizable=0;points=[];autosize=1;strokeColor=none;fillColor=none;fontSize=16;" vertex="1" parent="1">
          <mxGeometry x="-703" y="627.5" width="106" height="31" as="geometry" />
        </mxCell>
        <mxCell id="4lnt9RPYda3xQw-_CfB8-256" value="CreatePostVM" style="text;html=1;align=center;verticalAlign=middle;resizable=0;points=[];autosize=1;strokeColor=none;fillColor=none;fontSize=16;" vertex="1" parent="1">
          <mxGeometry x="-703" y="658.5" width="122" height="31" as="geometry" />
        </mxCell>
        <mxCell id="4lnt9RPYda3xQw-_CfB8-257" value="HomeVM" style="text;html=1;align=center;verticalAlign=middle;resizable=0;points=[];autosize=1;strokeColor=none;fillColor=none;fontSize=16;" vertex="1" parent="1">
          <mxGeometry x="-697" y="686" width="85" height="31" as="geometry" />
        </mxCell>
        <mxCell id="4lnt9RPYda3xQw-_CfB8-260" value="LoginVM" style="text;html=1;align=center;verticalAlign=middle;resizable=0;points=[];autosize=1;strokeColor=none;fillColor=none;fontSize=16;" vertex="1" parent="1">
          <mxGeometry x="-676" y="722" width="81" height="31" as="geometry" />
        </mxCell>
        <mxCell id="4lnt9RPYda3xQw-_CfB8-261" value="PageVM" style="text;html=1;align=center;verticalAlign=middle;resizable=0;points=[];autosize=1;strokeColor=none;fillColor=none;fontSize=16;" vertex="1" parent="1">
          <mxGeometry x="-697" y="759" width="79" height="31" as="geometry" />
        </mxCell>
        <mxCell id="4lnt9RPYda3xQw-_CfB8-262" value="PostVM" style="text;html=1;align=center;verticalAlign=middle;resizable=0;points=[];autosize=1;strokeColor=none;fillColor=none;fontSize=16;" vertex="1" parent="1">
          <mxGeometry x="-707.5" y="803" width="74" height="31" as="geometry" />
        </mxCell>
        <mxCell id="4lnt9RPYda3xQw-_CfB8-263" value="RegisterVM" style="text;html=1;align=center;verticalAlign=middle;resizable=0;points=[];autosize=1;strokeColor=none;fillColor=none;fontSize=16;" vertex="1" parent="1">
          <mxGeometry x="-740.5" y="848" width="102" height="31" as="geometry" />
        </mxCell>
        <mxCell id="4lnt9RPYda3xQw-_CfB8-264" value="ResetPasswordVM" style="text;html=1;align=center;verticalAlign=middle;resizable=0;points=[];autosize=1;strokeColor=none;fillColor=none;fontSize=16;" vertex="1" parent="1">
          <mxGeometry x="-894.5" y="848" width="154" height="31" as="geometry" />
        </mxCell>
        <mxCell id="4lnt9RPYda3xQw-_CfB8-265" value="SettingVM" style="text;html=1;align=center;verticalAlign=middle;resizable=0;points=[];autosize=1;strokeColor=none;fillColor=none;fontSize=16;" vertex="1" parent="1">
          <mxGeometry x="-995" y="786" width="92" height="31" as="geometry" />
        </mxCell>
        <mxCell id="4lnt9RPYda3xQw-_CfB8-266" value="UserVM" style="text;html=1;align=center;verticalAlign=middle;resizable=0;points=[];autosize=1;strokeColor=none;fillColor=none;fontSize=16;" vertex="1" parent="1">
          <mxGeometry x="-952.5" y="824.5" width="76" height="31" as="geometry" />
        </mxCell>
        <mxCell id="4lnt9RPYda3xQw-_CfB8-267" value="cs.html" style="text;html=1;align=center;verticalAlign=middle;resizable=0;points=[];autosize=1;strokeColor=#6c8ebf;fillColor=#dae8fc;fontSize=16;" vertex="1" parent="1">
          <mxGeometry x="-1015" y="742" width="69" height="31" as="geometry" />
        </mxCell>
        <mxCell id="4lnt9RPYda3xQw-_CfB8-268" value="8." style="text;html=1;align=center;verticalAlign=middle;resizable=0;points=[];autosize=1;strokeColor=none;fillColor=none;fontSize=16;" vertex="1" parent="1">
          <mxGeometry x="-950" y="959" width="31" height="31" as="geometry" />
        </mxCell>
        <mxCell id="4lnt9RPYda3xQw-_CfB8-269" value="Blog" style="text;html=1;align=center;verticalAlign=middle;resizable=0;points=[];autosize=1;strokeColor=#d79b00;fillColor=#ffe6cc;fontSize=16;" vertex="1" parent="1">
          <mxGeometry x="-892" y="964" width="50" height="31" as="geometry" />
        </mxCell>
        <mxCell id="4lnt9RPYda3xQw-_CfB8-273" value="" style="endArrow=classic;html=1;rounded=0;fontSize=12;startSize=8;endSize=8;curved=1;exitX=1.094;exitY=0.484;exitDx=0;exitDy=0;exitPerimeter=0;" edge="1" parent="1">
          <mxGeometry width="50" height="50" relative="1" as="geometry">
            <mxPoint x="-836" y="978" as="sourcePoint" />
            <mxPoint x="-755" y="975" as="targetPoint" />
          </mxGeometry>
        </mxCell>
        <mxCell id="4lnt9RPYda3xQw-_CfB8-274" value="Post.cshtml" style="text;html=1;align=center;verticalAlign=middle;resizable=0;points=[];autosize=1;strokeColor=none;fillColor=none;fontSize=16;" vertex="1" parent="1">
          <mxGeometry x="-756.5" y="964" width="101" height="31" as="geometry" />
        </mxCell>
        <mxCell id="4lnt9RPYda3xQw-_CfB8-275" value="9." style="text;html=1;align=center;verticalAlign=middle;resizable=0;points=[];autosize=1;strokeColor=none;fillColor=none;fontSize=16;" vertex="1" parent="1">
          <mxGeometry x="-942.5" y="1021.5" width="31" height="31" as="geometry" />
        </mxCell>
        <mxCell id="4lnt9RPYda3xQw-_CfB8-276" value="Home" style="text;html=1;align=center;verticalAlign=middle;resizable=0;points=[];autosize=1;strokeColor=#d79b00;fillColor=#ffe6cc;fontSize=16;" vertex="1" parent="1">
          <mxGeometry x="-903" y="1023.5" width="61" height="31" as="geometry" />
        </mxCell>
        <mxCell id="4lnt9RPYda3xQw-_CfB8-277" value="" style="endArrow=classic;html=1;rounded=0;fontSize=12;startSize=8;endSize=8;curved=1;" edge="1" parent="1">
          <mxGeometry width="50" height="50" relative="1" as="geometry">
            <mxPoint x="-838" y="1039" as="sourcePoint" />
            <mxPoint x="-767" y="1036" as="targetPoint" />
          </mxGeometry>
        </mxCell>
        <mxCell id="4lnt9RPYda3xQw-_CfB8-278" value="Index" style="text;html=1;align=center;verticalAlign=middle;resizable=0;points=[];autosize=1;strokeColor=none;fillColor=none;fontSize=16;" vertex="1" parent="1">
          <mxGeometry x="-770.5" y="1023.5" width="57" height="31" as="geometry" />
        </mxCell>
        <mxCell id="4lnt9RPYda3xQw-_CfB8-279" value="" style="endArrow=classic;html=1;rounded=0;fontSize=12;startSize=8;endSize=8;curved=1;" edge="1" parent="1">
          <mxGeometry width="50" height="50" relative="1" as="geometry">
            <mxPoint x="-827" y="1042" as="sourcePoint" />
            <mxPoint x="-706" y="1078" as="targetPoint" />
          </mxGeometry>
        </mxCell>
        <mxCell id="4lnt9RPYda3xQw-_CfB8-280" value="Privacy" style="text;html=1;align=center;verticalAlign=middle;resizable=0;points=[];autosize=1;strokeColor=none;fillColor=none;fontSize=16;" vertex="1" parent="1">
          <mxGeometry x="-714" y="1062" width="70" height="31" as="geometry" />
        </mxCell>
        <mxCell id="4lnt9RPYda3xQw-_CfB8-281" value="10." style="text;html=1;align=center;verticalAlign=middle;resizable=0;points=[];autosize=1;strokeColor=none;fillColor=none;fontSize=16;" vertex="1" parent="1">
          <mxGeometry x="-940.5" y="1135.5" width="40" height="31" as="geometry" />
        </mxCell>
        <mxCell id="4lnt9RPYda3xQw-_CfB8-282" value="Page" style="text;html=1;align=center;verticalAlign=middle;resizable=0;points=[];autosize=1;strokeColor=#d79b00;fillColor=#ffe6cc;fontSize=16;" vertex="1" parent="1">
          <mxGeometry x="-897" y="1135.5" width="55" height="31" as="geometry" />
        </mxCell>
        <mxCell id="4lnt9RPYda3xQw-_CfB8-283" value="" style="endArrow=classic;html=1;rounded=0;fontSize=12;startSize=8;endSize=8;curved=1;" edge="1" parent="1">
          <mxGeometry width="50" height="50" relative="1" as="geometry">
            <mxPoint x="-836" y="1152" as="sourcePoint" />
            <mxPoint x="-756" y="1149" as="targetPoint" />
          </mxGeometry>
        </mxCell>
        <mxCell id="4lnt9RPYda3xQw-_CfB8-284" value="About" style="text;html=1;align=center;verticalAlign=middle;resizable=0;points=[];autosize=1;strokeColor=none;fillColor=none;fontSize=16;" vertex="1" parent="1">
          <mxGeometry x="-763.5" y="1135.5" width="60" height="31" as="geometry" />
        </mxCell>
        <mxCell id="4lnt9RPYda3xQw-_CfB8-285" value="" style="endArrow=classic;html=1;rounded=0;fontSize=12;startSize=8;endSize=8;curved=1;" edge="1" parent="1">
          <mxGeometry width="50" height="50" relative="1" as="geometry">
            <mxPoint x="-821" y="1154" as="sourcePoint" />
            <mxPoint x="-722" y="1199" as="targetPoint" />
          </mxGeometry>
        </mxCell>
        <mxCell id="4lnt9RPYda3xQw-_CfB8-286" value="Contact" style="text;html=1;align=center;verticalAlign=middle;resizable=0;points=[];autosize=1;strokeColor=none;fillColor=none;fontSize=16;" vertex="1" parent="1">
          <mxGeometry x="-726" y="1191" width="73" height="31" as="geometry" />
        </mxCell>
        <mxCell id="4lnt9RPYda3xQw-_CfB8-287" value="" style="endArrow=classic;html=1;rounded=0;fontSize=12;startSize=8;endSize=8;curved=1;" edge="1" parent="1">
          <mxGeometry width="50" height="50" relative="1" as="geometry">
            <mxPoint x="-832" y="1155" as="sourcePoint" />
            <mxPoint x="-793" y="1244" as="targetPoint" />
          </mxGeometry>
        </mxCell>
        <mxCell id="4lnt9RPYda3xQw-_CfB8-288" value="PrivacyPolicy" style="text;html=1;align=center;verticalAlign=middle;resizable=0;points=[];autosize=1;strokeColor=none;fillColor=none;fontSize=16;" vertex="1" parent="1">
          <mxGeometry x="-820.5" y="1249.5" width="113" height="31" as="geometry" />
        </mxCell>
        <mxCell id="4lnt9RPYda3xQw-_CfB8-289" value="cs.html" style="text;html=1;align=center;verticalAlign=middle;resizable=0;points=[];autosize=1;strokeColor=#6c8ebf;fillColor=#dae8fc;fontSize=16;" vertex="1" parent="1">
          <mxGeometry x="-657.5" y="1030.5" width="69" height="31" as="geometry" />
        </mxCell>
        <mxCell id="4lnt9RPYda3xQw-_CfB8-290" value="cs.html" style="text;html=1;align=center;verticalAlign=middle;resizable=0;points=[];autosize=1;strokeColor=#6c8ebf;fillColor=#dae8fc;fontSize=16;" vertex="1" parent="1">
          <mxGeometry x="-640" y="1166.5" width="69" height="31" as="geometry" />
        </mxCell>
        <mxCell id="4lnt9RPYda3xQw-_CfB8-291" value="cs.html" style="text;html=1;align=center;verticalAlign=middle;resizable=0;points=[];autosize=1;strokeColor=#6c8ebf;fillColor=#dae8fc;fontSize=16;" vertex="1" parent="1">
          <mxGeometry x="-653" y="476" width="69" height="31" as="geometry" />
        </mxCell>
        <mxCell id="4lnt9RPYda3xQw-_CfB8-292" value="wwwroot" style="text;html=1;align=center;verticalAlign=middle;resizable=0;points=[];autosize=1;strokeColor=#9673a6;fillColor=#e1d5e7;fontSize=16;" vertex="1" parent="1">
          <mxGeometry x="-956.5" y="1355.5" width="80" height="31" as="geometry" />
        </mxCell>
        <mxCell id="4lnt9RPYda3xQw-_CfB8-293" value="blog" style="text;html=1;align=center;verticalAlign=middle;resizable=0;points=[];autosize=1;strokeColor=none;fillColor=none;fontSize=16;" vertex="1" parent="1">
          <mxGeometry x="-892.5" y="1406.5" width="48" height="31" as="geometry" />
        </mxCell>
        <mxCell id="4lnt9RPYda3xQw-_CfB8-294" value="" style="endArrow=classic;html=1;rounded=0;fontSize=12;startSize=8;endSize=8;curved=1;exitX=1.073;exitY=0.5;exitDx=0;exitDy=0;exitPerimeter=0;" edge="1" parent="1" source="4lnt9RPYda3xQw-_CfB8-293">
          <mxGeometry width="50" height="50" relative="1" as="geometry">
            <mxPoint x="-829" y="1426" as="sourcePoint" />
            <mxPoint x="-791" y="1422" as="targetPoint" />
          </mxGeometry>
        </mxCell>
        <mxCell id="4lnt9RPYda3xQw-_CfB8-295" value="assests" style="text;html=1;align=center;verticalAlign=middle;resizable=0;points=[];autosize=1;strokeColor=none;fillColor=none;fontSize=16;" vertex="1" parent="1">
          <mxGeometry x="-793" y="1409" width="72" height="31" as="geometry" />
        </mxCell>
        <mxCell id="4lnt9RPYda3xQw-_CfB8-296" value="" style="endArrow=classic;html=1;rounded=0;fontSize=12;startSize=8;endSize=8;curved=1;" edge="1" parent="1">
          <mxGeometry width="50" height="50" relative="1" as="geometry">
            <mxPoint x="-836" y="1425" as="sourcePoint" />
            <mxPoint x="-770" y="1457" as="targetPoint" />
          </mxGeometry>
        </mxCell>
        <mxCell id="4lnt9RPYda3xQw-_CfB8-297" value="css" style="text;html=1;align=center;verticalAlign=middle;resizable=0;points=[];autosize=1;strokeColor=none;fillColor=none;fontSize=16;" vertex="1" parent="1">
          <mxGeometry x="-772.5" y="1446.5" width="42" height="31" as="geometry" />
        </mxCell>
        <mxCell id="4lnt9RPYda3xQw-_CfB8-298" value="" style="endArrow=classic;html=1;rounded=0;fontSize=12;startSize=8;endSize=8;curved=1;exitX=1.135;exitY=0.758;exitDx=0;exitDy=0;exitPerimeter=0;" edge="1" parent="1" source="4lnt9RPYda3xQw-_CfB8-293">
          <mxGeometry width="50" height="50" relative="1" as="geometry">
            <mxPoint x="-812" y="1485" as="sourcePoint" />
            <mxPoint x="-778" y="1496" as="targetPoint" />
          </mxGeometry>
        </mxCell>
        <mxCell id="4lnt9RPYda3xQw-_CfB8-299" value="js" style="text;html=1;align=center;verticalAlign=middle;resizable=0;points=[];autosize=1;strokeColor=none;fillColor=none;fontSize=16;" vertex="1" parent="1">
          <mxGeometry x="-768" y="1488" width="30" height="31" as="geometry" />
        </mxCell>
      </root>
    </mxGraphModel>
  </diagram>
</mxfile>
